<svg height="665.22265625" version="1.1" width="931.9921875" xmlns="http://www.w3.org/2000/svg" xmlns:xlink="http://www.w3.org/1999/xlink" style="overflow: hidden; position: relative; top: -0.5px;" viewBox="-326.66015625 0 931.9921875 665.22265625" preserveAspectRatio="xMidYMid meet"><desc style="-webkit-tap-highlight-color: rgba(0, 0, 0, 0);">Created with Raphaël @@VERSION</desc><defs style="-webkit-tap-highlight-color: rgba(0, 0, 0, 0);"><path stroke-linecap="round" d="M5,0 0,2.5 5,5z" id="raphael-marker-block" style="-webkit-tap-highlight-color: rgba(0, 0, 0, 0);"></path><marker id="raphael-marker-endblock33-obj22708" markerHeight="3" markerWidth="3" orient="auto" refX="1.5" refY="1.5" style="-webkit-tap-highlight-color: rgba(0, 0, 0, 0);"><use xlink:href="#raphael-marker-block" transform="rotate(180 1.5 1.5) scale(0.6,0.6)" stroke-width="1.6667" fill="black" stroke="none" style="-webkit-tap-highlight-color: rgba(0, 0, 0, 0);"></use></marker><marker id="raphael-marker-endblock33-obj22709" markerHeight="3" markerWidth="3" orient="auto" refX="1.5" refY="1.5" style="-webkit-tap-highlight-color: rgba(0, 0, 0, 0);"><use xlink:href="#raphael-marker-block" transform="rotate(180 1.5 1.5) scale(0.6,0.6)" stroke-width="1.6667" fill="black" stroke="none" style="-webkit-tap-highlight-color: rgba(0, 0, 0, 0);"></use></marker><marker id="raphael-marker-endblock33-obj22710" markerHeight="3" markerWidth="3" orient="auto" refX="1.5" refY="1.5" style="-webkit-tap-highlight-color: rgba(0, 0, 0, 0);"><use xlink:href="#raphael-marker-block" transform="rotate(180 1.5 1.5) scale(0.6,0.6)" stroke-width="1.6667" fill="black" stroke="none" style="-webkit-tap-highlight-color: rgba(0, 0, 0, 0);"></use></marker><marker id="raphael-marker-endblock33-obj22711" markerHeight="3" markerWidth="3" orient="auto" refX="1.5" refY="1.5" style="-webkit-tap-highlight-color: rgba(0, 0, 0, 0);"><use xlink:href="#raphael-marker-block" transform="rotate(180 1.5 1.5) scale(0.6,0.6)" stroke-width="1.6667" fill="black" stroke="none" style="-webkit-tap-highlight-color: rgba(0, 0, 0, 0);"></use></marker><marker id="raphael-marker-endblock33-obj22712" markerHeight="3" markerWidth="3" orient="auto" refX="1.5" refY="1.5" style="-webkit-tap-highlight-color: rgba(0, 0, 0, 0);"><use xlink:href="#raphael-marker-block" transform="rotate(180 1.5 1.5) scale(0.6,0.6)" stroke-width="1.6667" fill="black" stroke="none" style="-webkit-tap-highlight-color: rgba(0, 0, 0, 0);"></use></marker><marker id="raphael-marker-endblock33-obj22713" markerHeight="3" markerWidth="3" orient="auto" refX="1.5" refY="1.5" style="-webkit-tap-highlight-color: rgba(0, 0, 0, 0);"><use xlink:href="#raphael-marker-block" transform="rotate(180 1.5 1.5) scale(0.6,0.6)" stroke-width="1.6667" fill="black" stroke="none" style="-webkit-tap-highlight-color: rgba(0, 0, 0, 0);"></use></marker><marker id="raphael-marker-endblock33-obj22714" markerHeight="3" markerWidth="3" orient="auto" refX="1.5" refY="1.5" style="-webkit-tap-highlight-color: rgba(0, 0, 0, 0);"><use xlink:href="#raphael-marker-block" transform="rotate(180 1.5 1.5) scale(0.6,0.6)" stroke-width="1.6667" fill="black" stroke="none" style="-webkit-tap-highlight-color: rgba(0, 0, 0, 0);"></use></marker><marker id="raphael-marker-endblock33-obj22715" markerHeight="3" markerWidth="3" orient="auto" refX="1.5" refY="1.5" style="-webkit-tap-highlight-color: rgba(0, 0, 0, 0);"><use xlink:href="#raphael-marker-block" transform="rotate(180 1.5 1.5) scale(0.6,0.6)" stroke-width="1.6667" fill="black" stroke="none" style="-webkit-tap-highlight-color: rgba(0, 0, 0, 0);"></use></marker><marker id="raphael-marker-endblock33-obj22717" markerHeight="3" markerWidth="3" orient="auto" refX="1.5" refY="1.5" style="-webkit-tap-highlight-color: rgba(0, 0, 0, 0);"><use xlink:href="#raphael-marker-block" transform="rotate(180 1.5 1.5) scale(0.6,0.6)" stroke-width="1.6667" fill="black" stroke="none" style="-webkit-tap-highlight-color: rgba(0, 0, 0, 0);"></use></marker><marker id="raphael-marker-endblock33-obj22719" markerHeight="3" markerWidth="3" orient="auto" refX="1.5" refY="1.5" style="-webkit-tap-highlight-color: rgba(0, 0, 0, 0);"><use xlink:href="#raphael-marker-block" transform="rotate(180 1.5 1.5) scale(0.6,0.6)" stroke-width="1.6667" fill="black" stroke="none" style="-webkit-tap-highlight-color: rgba(0, 0, 0, 0);"></use></marker><marker id="raphael-marker-endblock33-obj22720" markerHeight="3" markerWidth="3" orient="auto" refX="1.5" refY="1.5" style="-webkit-tap-highlight-color: rgba(0, 0, 0, 0);"><use xlink:href="#raphael-marker-block" transform="rotate(180 1.5 1.5) scale(0.6,0.6)" stroke-width="1.6667" fill="black" stroke="none" style="-webkit-tap-highlight-color: rgba(0, 0, 0, 0);"></use></marker><marker id="raphael-marker-endblock33-obj22721" markerHeight="3" markerWidth="3" orient="auto" refX="1.5" refY="1.5" style="-webkit-tap-highlight-color: rgba(0, 0, 0, 0);"><use xlink:href="#raphael-marker-block" transform="rotate(180 1.5 1.5) scale(0.6,0.6)" stroke-width="1.6667" fill="black" stroke="none" style="-webkit-tap-highlight-color: rgba(0, 0, 0, 0);"></use></marker></defs><rect x="0" y="0" width="66.671875" height="35.5" rx="20" ry="20" fill="#ffffff" stroke="#000000" style="-webkit-tap-highlight-color: rgba(0, 0, 0, 0);" stroke-width="3" class="flowchart" id="bond_issuance" transform="matrix(1,0,0,1,106,39.5938)"></rect><text x="10" y="17.75" text-anchor="start" font-family="&quot;Arial&quot;" font-size="14px" stroke="none" fill="#000000" style="-webkit-tap-highlight-color: rgba(0, 0, 0, 0); text-anchor: start; font-family: Arial; font-size: 14px;" id="bond_issuancet" class="flowchartt" transform="matrix(1,0,0,1,106,39.5938)" stroke-width="1"><tspan dy="4.75" style="-webkit-tap-highlight-color: rgba(0, 0, 0, 0);">Plasma</tspan></text><rect x="0" y="0" width="173.328125" height="35.5" rx="0" ry="0" fill="#ffffff" stroke="#000000" style="-webkit-tap-highlight-color: rgba(0, 0, 0, 0);" stroke-width="3" class="flowchart" id="trading" transform="matrix(1,0,0,1,52.6719,164.6875)"></rect><text x="10" y="17.75" text-anchor="start" font-family="&quot;Arial&quot;" font-size="14px" stroke="none" fill="#000000" style="-webkit-tap-highlight-color: rgba(0, 0, 0, 0); text-anchor: start; font-family: Arial; font-size: 14px;" id="tradingt" class="flowchartt" transform="matrix(1,0,0,1,52.6719,164.6875)" stroke-width="1"><tspan dy="4.75" style="-webkit-tap-highlight-color: rgba(0, 0, 0, 0);">Asset or value exchange</tspan></text><rect x="0" y="0" width="238.65625" height="52.296875" rx="0" ry="0" fill="#ffffff" stroke="#000000" style="-webkit-tap-highlight-color: rgba(0, 0, 0, 0);" stroke-width="3" class="flowchart" id="block" transform="matrix(1,0,0,1,20.0078,281.3828)"></rect><text x="10" y="26.1484375" text-anchor="start" font-family="&quot;Arial&quot;" font-size="14px" stroke="none" fill="#000000" style="-webkit-tap-highlight-color: rgba(0, 0, 0, 0); text-anchor: start; font-family: Arial; font-size: 14px;" id="blockt" class="flowchartt" transform="matrix(1,0,0,1,20.0078,281.3828)" stroke-width="1"><tspan dy="-3.640625" style="-webkit-tap-highlight-color: rgba(0, 0, 0, 0);">Block is produced with transactions</tspan><tspan dy="16.8" x="10" style="-webkit-tap-highlight-color: rgba(0, 0, 0, 0);">over 1 minute period</tspan></text><rect x="0" y="0" width="135.921875" height="52.296875" rx="0" ry="0" fill="#ffffff" stroke="#000000" style="-webkit-tap-highlight-color: rgba(0, 0, 0, 0);" stroke-width="3" class="flowchart" id="verifier" transform="matrix(1,0,0,1,-237.2891,281.3828)"></rect><text x="10" y="26.1484375" text-anchor="start" font-family="&quot;Arial&quot;" font-size="14px" stroke="none" fill="#000000" style="-webkit-tap-highlight-color: rgba(0, 0, 0, 0); text-anchor: start; font-family: Arial; font-size: 14px;" id="verifiert" class="flowchartt" transform="matrix(1,0,0,1,-237.2891,281.3828)" stroke-width="1"><tspan dy="-3.640625" style="-webkit-tap-highlight-color: rgba(0, 0, 0, 0);">External verifiers / </tspan><tspan dy="16.8" x="10" style="-webkit-tap-highlight-color: rgba(0, 0, 0, 0);">Liquidity provider</tspan></text><rect x="0" y="0" width="191.1875" height="102.6875" rx="0" ry="0" fill="#ffffff" stroke="#000000" style="-webkit-tap-highlight-color: rgba(0, 0, 0, 0);" stroke-width="3" class="flowchart" id="set_of_rules" transform="matrix(1,0,0,1,-264.9219,389.6797)"></rect><text x="10" y="51.34375" text-anchor="start" font-family="&quot;Arial&quot;" font-size="14px" stroke="none" fill="#000000" style="-webkit-tap-highlight-color: rgba(0, 0, 0, 0); text-anchor: start; font-family: Arial; font-size: 14px;" id="set_of_rulest" class="flowchartt" transform="matrix(1,0,0,1,-264.9219,389.6797)" stroke-width="1"><tspan dy="-28.84375" style="-webkit-tap-highlight-color: rgba(0, 0, 0, 0);">Verification rules, </tspan><tspan dy="16.8" x="10" style="-webkit-tap-highlight-color: rgba(0, 0, 0, 0);">such as ownership checks, </tspan><tspan dy="16.8" x="10" style="-webkit-tap-highlight-color: rgba(0, 0, 0, 0);">KYC restrictions, </tspan><tspan dy="16.8" x="10" style="-webkit-tap-highlight-color: rgba(0, 0, 0, 0);">amounts mismatches, </tspan><tspan dy="16.8" x="10" style="-webkit-tap-highlight-color: rgba(0, 0, 0, 0);">double-spends</tspan></text><path fill="#ffffff" stroke="#000000" d="M37.51171875,18.755859375L0,37.51171875L75.0234375,75.0234375L150.046875,37.51171875L75.0234375,0L0,37.51171875" stroke-width="3" id="error_found" class="flowchart" style="-webkit-tap-highlight-color: rgba(0, 0, 0, 0);" transform="matrix(1,0,0,1,-244.3516,562.1992)"></path><text x="42.51171875" y="37.51171875" text-anchor="start" font-family="&quot;Arial&quot;" font-size="14px" stroke="none" fill="#000000" style="-webkit-tap-highlight-color: rgba(0, 0, 0, 0); text-anchor: start; font-family: Arial; font-size: 14px;" id="error_foundt" class="flowchartt" transform="matrix(1,0,0,1,-244.3516,562.1992)" stroke-width="1"><tspan dy="4.76171875" style="-webkit-tap-highlight-color: rgba(0, 0, 0, 0);">Error found</tspan></text><rect x="0" y="0" width="252.640625" height="52.296875" rx="0" ry="0" fill="#ffffff" stroke="#000000" style="-webkit-tap-highlight-color: rgba(0, 0, 0, 0);" stroke-width="3" class="flowchart" id="smart_contract" transform="matrix(1,0,0,1,13.0156,539.9688)"></rect><text x="10" y="26.1484375" text-anchor="start" font-family="&quot;Arial&quot;" font-size="14px" stroke="none" fill="#000000" style="-webkit-tap-highlight-color: rgba(0, 0, 0, 0); text-anchor: start; font-family: Arial; font-size: 14px;" id="smart_contractt" class="flowchartt" transform="matrix(1,0,0,1,13.0156,539.9688)" stroke-width="1"><tspan dy="-3.640625" style="-webkit-tap-highlight-color: rgba(0, 0, 0, 0);">Smart-contract for disputes resolution</tspan><tspan dy="16.8" x="10" style="-webkit-tap-highlight-color: rgba(0, 0, 0, 0);">and deposit/withdrawal procedures</tspan></text><rect x="0" y="0" width="182.625" height="35.5" rx="0" ry="0" fill="#ffffff" stroke="#000000" style="-webkit-tap-highlight-color: rgba(0, 0, 0, 0);" stroke-width="3" class="flowchart" id="commitment" transform="matrix(1,0,0,1,48.0234,423.2734)"></rect><text x="10" y="17.75" text-anchor="start" font-family="&quot;Arial&quot;" font-size="14px" stroke="none" fill="#000000" style="-webkit-tap-highlight-color: rgba(0, 0, 0, 0); text-anchor: start; font-family: Arial; font-size: 14px;" id="commitmentt" class="flowchartt" transform="matrix(1,0,0,1,48.0234,423.2734)" stroke-width="1"><tspan dy="4.75" style="-webkit-tap-highlight-color: rgba(0, 0, 0, 0);">Commit to produced block</tspan></text><rect x="0" y="0" width="240.203125" height="52.296875" rx="0" ry="0" fill="#ffffff" stroke="#000000" style="-webkit-tap-highlight-color: rgba(0, 0, 0, 0);" stroke-width="3" class="flowchart" id="comission" transform="matrix(1,0,0,1,327.8984,281.3828)"></rect><text x="10" y="26.1484375" text-anchor="start" font-family="&quot;Arial&quot;" font-size="14px" stroke="none" fill="#000000" style="-webkit-tap-highlight-color: rgba(0, 0, 0, 0); text-anchor: start; font-family: Arial; font-size: 14px;" id="comissiont" class="flowchartt" transform="matrix(1,0,0,1,327.8984,281.3828)" stroke-width="1"><tspan dy="-3.640625" style="-webkit-tap-highlight-color: rgba(0, 0, 0, 0);">Ownership transfering transactions </tspan><tspan dy="16.8" x="10" style="-webkit-tap-highlight-color: rgba(0, 0, 0, 0);">incur a comission on sender</tspan></text><rect x="0" y="0" width="266.671875" height="69.09375" rx="0" ry="0" fill="#ffffff" stroke="#000000" style="-webkit-tap-highlight-color: rgba(0, 0, 0, 0);" stroke-width="3" class="flowchart" id="liquidity" transform="matrix(1,0,0,1,314.6641,406.4766)"></rect><text x="10" y="34.546875" text-anchor="start" font-family="&quot;Arial&quot;" font-size="14px" stroke="none" fill="#000000" style="-webkit-tap-highlight-color: rgba(0, 0, 0, 0); text-anchor: start; font-family: Arial; font-size: 14px;" id="liquidityt" class="flowchartt" transform="matrix(1,0,0,1,314.6641,406.4766)" stroke-width="1"><tspan dy="-12.046875" style="-webkit-tap-highlight-color: rgba(0, 0, 0, 0);">Matter Inc., as well as other market </tspan><tspan dy="16.8" x="10" style="-webkit-tap-highlight-color: rgba(0, 0, 0, 0);">players can provide liquidity for a faster </tspan><tspan dy="16.8" x="10" style="-webkit-tap-highlight-color: rgba(0, 0, 0, 0);">deposit/withdrawal processes</tspan></text><path fill="none" stroke="#000000" d="M139.3359375,75.09375C139.3359375,75.09375,139.3359375,142.01504597067833,139.3359375,160.18313218146795" stroke-width="3" marker-end="url(#raphael-marker-endblock33-obj22708)" style="-webkit-tap-highlight-color: rgba(0, 0, 0, 0);"></path><path fill="none" stroke="#000000" d="M139.3359375,200.1875C139.3359375,200.1875,139.3359375,259.84605370881036,139.3359375,276.88719331801644" stroke-width="3" marker-end="url(#raphael-marker-endblock33-obj22709)" style="-webkit-tap-highlight-color: rgba(0, 0, 0, 0);"></path><path fill="none" stroke="#000000" d="M20.0078125,307.53125C20.0078125,307.53125,-74.90093430876732,307.53125,-96.86711887290585,307.53125" stroke-width="3" marker-end="url(#raphael-marker-endblock33-obj22710)" style="-webkit-tap-highlight-color: rgba(0, 0, 0, 0);"></path><path fill="none" stroke="#000000" d="M139.3359375,333.6796875C139.3359375,333.6796875,139.3359375,400.60098347067833,139.3359375,418.76906968146795" stroke-width="3" marker-end="url(#raphael-marker-endblock33-obj22711)" style="-webkit-tap-highlight-color: rgba(0, 0, 0, 0);"></path><path fill="none" stroke="#000000" d="M258.6640625,307.53125C258.6640625,307.53125,308.0385958617553,307.53125,323.3958115606997,307.53125" stroke-width="3" marker-end="url(#raphael-marker-endblock33-obj22712)" style="-webkit-tap-highlight-color: rgba(0, 0, 0, 0);"></path><path fill="none" stroke="#000000" d="M-169.328125,333.6796875C-169.328125,333.6796875,-169.328125,371.88045835494995,-169.328125,385.17984781763516" stroke-width="3" marker-end="url(#raphael-marker-endblock33-obj22713)" style="-webkit-tap-highlight-color: rgba(0, 0, 0, 0);"></path><path fill="none" stroke="#000000" d="M-169.328125,492.3671875C-169.328125,492.3671875,-169.328125,542.2543618651107,-169.328125,557.69795002306" stroke-width="3" marker-end="url(#raphael-marker-endblock33-obj22714)" style="-webkit-tap-highlight-color: rgba(0, 0, 0, 0);"></path><path fill="none" stroke="#000000" d="M-169.328125,637.22265625C-169.328125,637.22265625,-169.328125,662.22265625,-169.328125,662.22265625C-169.328125,662.22265625,-323.66015625,662.22265625,-323.66015625,662.22265625C-323.66015625,662.22265625,-323.66015625,514.96875,-323.66015625,514.96875C-323.66015625,514.96875,-175.328125,514.96875,-175.328125,514.96875C-175.328125,514.96875,-169.328125,502.96875,-163.328125,514.96875C-163.328125,514.96875,139.3359375,514.96875,139.3359375,514.96875C139.3359375,514.96875,139.3359375,528.2727212905884,139.3359375,535.4703776333481" stroke-width="3" marker-end="url(#raphael-marker-endblock33-obj22715)" style="-webkit-tap-highlight-color: rgba(0, 0, 0, 0);"></path><text x="-164.328125" y="647.22265625" text-anchor="start" font-family="&quot;Arial&quot;" font-size="14px" stroke="none" fill="#000000" style="-webkit-tap-highlight-color: rgba(0, 0, 0, 0); text-anchor: start; font-family: Arial; font-size: 14px;" stroke-width="1"><tspan dy="4.75390625" style="-webkit-tap-highlight-color: rgba(0, 0, 0, 0);">yes</tspan></text><path fill="none" stroke="#000000" d="M-94.3046875,599.7109375C-94.3046875,599.7109375,-69.3046875,599.7109375,-69.3046875,599.7109375C-69.3046875,599.7109375,-69.3046875,520.96875,-69.3046875,520.96875C-69.3046875,520.96875,-57.3046875,514.96875,-69.3046875,508.96875C-69.3046875,508.96875,-69.3046875,313.53125,-69.3046875,313.53125C-69.3046875,313.53125,-57.3046875,307.53125,-69.3046875,301.53125C-69.3046875,301.53125,-69.3046875,256.3828125,-69.3046875,256.3828125C-69.3046875,256.3828125,-169.328125,256.3828125,-169.328125,256.3828125C-169.328125,256.3828125,-169.328125,269.6867837905884,-169.328125,276.8844401333481" stroke-width="3" marker-end="url(#raphael-marker-endblock33-obj22717)" style="-webkit-tap-highlight-color: rgba(0, 0, 0, 0);"></path><text x="-89.3046875" y="589.7109375" text-anchor="start" font-family="&quot;Arial&quot;" font-size="14px" stroke="none" fill="#000000" style="-webkit-tap-highlight-color: rgba(0, 0, 0, 0); text-anchor: start; font-family: Arial; font-size: 14px;" stroke-width="1"><tspan dy="4.7578125" style="-webkit-tap-highlight-color: rgba(0, 0, 0, 0);">no</tspan></text><path fill="none" stroke="#000000" d="M139.3359375,458.7734375C139.3359375,458.7734375,139.3359375,518.4319912088104,139.3359375,535.4731308180164" stroke-width="3" marker-end="url(#raphael-marker-endblock33-obj22719)" style="-webkit-tap-highlight-color: rgba(0, 0, 0, 0);"></path><path fill="none" stroke="#000000" d="M448,333.6796875C448,333.6796875,448,386.1063698977232,448,401.97772882672143" stroke-width="3" marker-end="url(#raphael-marker-endblock33-obj22720)" style="-webkit-tap-highlight-color: rgba(0, 0, 0, 0);"></path><path fill="none" stroke="#000000" d="M448,475.5703125C448,475.5703125,448,514.96875,448,514.96875C448,514.96875,139.3359375,514.96875,139.3359375,514.96875C139.3359375,514.96875,139.3359375,528.2727212905884,139.3359375,535.4703776333481" stroke-width="3" marker-end="url(#raphael-marker-endblock33-obj22721)" style="-webkit-tap-highlight-color: rgba(0, 0, 0, 0);"></path></svg>
